# xmcd
# 
# Track frame offsets:
#     150
#     22871
#     49932
#     85287
#     103151
#     127135
#     141496
#     154759
# 
# Disc length: 2265
# 
# Revision: 3
# Processed by: cddbd v1.5.2PL0 Copyright (c) Steve Scherf et al.
# Submitted via: fre:ac v1.1beta1pre4
# 
DISCID=6d08d708
DTITLE=Nalepa Tadeusz - Nalepa Tadeusz_To Moj Blues
DYEAR=1989
DGENRE=Blues
TTITLE0=Pozwol mi byc z toba tu
TTITLE1=Hold
TTITLE2=Dbaj o milosc
TTITLE3=On sloncem mym
TTITLE4=Nie zaluj mnie
TTITLE5=Zasady gry
TTITLE6=Wiec badz
TTITLE7=Juz wstal twoj dzien
EXTD=YEAR: 2014
EXTT0=
EXTT1=
EXTT2=
EXTT3=
EXTT4=
EXTT5=
EXTT6=
EXTT7=
PLAYORDER=
